<?xml version="1.0" standalone="no"?>
<!DOCTYPE svg PUBLIC "-//W3C//DTD SVG 20010904//EN"
 "http://www.w3.org/TR/2001/REC-SVG-20010904/DTD/svg10.dtd">
<svg version="1.0" xmlns="http://www.w3.org/2000/svg"
 width="1024.000000pt" height="1024.000000pt" viewBox="0 0 1024.000000 1024.000000"
 preserveAspectRatio="xMidYMid meet">
<metadata>
Created by potrace 1.14, written by Peter Selinger 2001-2017
</metadata>
<g transform="translate(0.000000,1024.000000) scale(0.100000,-0.100000)"
fill="#000000" stroke="none">
<path d="M6788 9174 c-2 -1 -28 -5 -58 -9 -30 -4 -59 -9 -63 -12 -4 -2 -33 -6
-65 -9 -31 -2 -104 -16 -162 -32 -78 -21 -112 -26 -127 -19 -18 8 -26 5 -48
-21 -25 -30 -128 -102 -186 -131 -32 -16 -38 -45 -12 -60 22 -12 16 -18 -25
-26 -17 -3 -62 -12 -98 -21 -76 -17 -132 -20 -189 -10 -109 19 -240 29 -515
41 -69 3 -142 8 -164 11 -21 3 -68 7 -105 10 -36 2 -88 7 -116 10 -241 29
-459 37 -532 18 -27 -7 -66 -15 -88 -18 -103 -15 -123 -20 -170 -41 -64 -28
-65 -28 -202 31 -17 8 -35 14 -40 14 -6 0 -18 8 -27 19 -14 16 -23 17 -56 9
-30 -8 -50 -6 -92 7 -109 36 -188 89 -188 127 0 10 -6 18 -14 18 -8 0 -119
-36 -248 -80 -197 -67 -235 -77 -244 -65 -7 9 -20 12 -35 9 -13 -3 -45 -7 -70
-9 -26 -2 -65 -13 -88 -25 -54 -27 -215 -121 -221 -129 -3 -4 -48 -39 -100
-78 -318 -240 -450 -357 -560 -498 -45 -58 -59 -125 -41 -202 9 -43 18 -127
26 -268 3 -51 11 -112 21 -155 3 -14 7 -36 10 -50 18 -92 112 -351 148 -409
12 -20 28 -50 35 -68 12 -29 109 -129 171 -175 20 -15 22 -24 20 -90 -8 -205
-3 -347 15 -423 35 -149 99 -254 172 -286 46 -20 46 -20 13 -69 -22 -32 -71
-161 -105 -275 -15 -49 -43 -126 -62 -169 -30 -66 -37 -98 -45 -190 -15 -157
-13 -189 12 -257 21 -55 20 -95 -1 -57 -5 9 -28 40 -52 70 -56 70 -85 116
-135 215 -54 109 -78 184 -113 353 l-19 95 5 -80 c3 -44 7 -91 9 -105 3 -14
10 -59 16 -100 17 -107 51 -231 114 -415 86 -250 102 -290 182 -445 80 -156
91 -173 114 -182 8 -3 26 -27 40 -54 14 -26 42 -74 62 -105 21 -32 38 -61 38
-65 0 -3 14 -26 30 -51 17 -24 30 -46 30 -48 0 -3 22 -42 49 -87 26 -46 51
-90 54 -98 13 -35 7 19 -7 56 -18 53 -30 124 -19 124 11 -1 163 -212 203 -283
17 -31 34 -57 37 -57 4 0 -2 25 -14 58 -12 30 16 8 37 -31 13 -23 26 -44 30
-47 19 -15 113 -211 127 -263 32 -126 22 -412 -22 -612 -9 -38 -18 -80 -20
-93 -3 -12 -7 -30 -9 -40 -16 -63 -34 -157 -31 -160 3 -3 52 69 93 139 33 55
132 257 132 269 0 5 5 10 10 10 16 0 13 -11 -30 -114 -89 -213 -158 -346 -295
-563 -38 -62 -89 -143 -112 -181 -88 -143 -318 -433 -441 -558 -21 -22 -83
-79 -137 -129 -54 -49 -106 -97 -115 -105 -8 -8 -40 -32 -70 -52 -170 -117
-177 -124 -80 -87 107 41 235 112 321 180 82 65 65 13 -31 -94 -165 -184 -314
-315 -527 -461 -62 -42 -115 -81 -117 -85 -3 -5 34 7 82 26 48 19 123 48 167
65 121 47 434 176 485 200 96 44 110 49 110 36 0 -7 -26 -30 -58 -50 -56 -36
-265 -154 -286 -161 -6 -3 -9 -7 -6 -9 3 -3 66 21 140 54 74 33 169 73 210 89
72 30 272 134 393 206 118 71 69 7 -93 -121 -47 -37 -89 -70 -95 -74 -5 -4
-53 -38 -105 -76 -52 -37 -106 -76 -120 -87 -14 -10 -55 -36 -93 -59 -37 -22
-67 -42 -67 -44 0 -4 332 100 365 114 11 5 76 27 145 51 69 23 198 75 288 115
89 39 162 67 161 61 0 -16 -173 -148 -303 -234 -100 -65 -140 -101 -76 -68 17
9 110 48 208 87 262 105 770 349 960 462 57 33 123 72 145 85 106 60 321 190
421 255 237 153 566 355 716 438 41 23 105 63 295 184 77 49 147 94 156 99 10
6 128 76 262 158 272 163 298 174 246 109 -11 -14 -50 -58 -87 -97 -37 -39
-92 -100 -122 -134 -30 -35 -67 -77 -82 -93 -34 -36 -36 -45 -5 -26 12 8 121
73 242 143 187 109 567 350 607 385 7 6 56 43 108 82 206 154 421 330 505 413
63 62 201 254 249 345 38 72 90 229 111 330 0 3 4 21 8 40 4 19 9 46 12 60 5
24 10 58 20 125 10 66 15 95 40 215 14 69 25 129 25 135 -1 5 -13 -21 -29 -60
-40 -101 -53 -125 -62 -120 -4 3 -6 15 -4 28 2 12 9 58 15 102 7 44 14 87 15
97 2 9 6 38 10 65 4 26 8 59 10 73 2 14 7 57 11 95 3 39 8 78 10 88 11 60 20
445 15 635 -1 50 -18 76 -19 30 0 -23 -74 -263 -113 -370 -22 -61 -43 -78 -34
-30 6 36 11 79 20 167 4 39 9 78 11 88 5 26 17 264 16 312 0 51 -10 230 -17
320 -11 145 -17 196 -34 305 -18 112 -18 113 3 154 35 67 47 86 123 186 88
117 88 118 281 318 266 277 396 474 482 732 30 87 32 107 34 240 3 158 -5 197
-59 297 -95 176 -349 439 -537 555 -145 91 -211 121 -328 153 -83 22 -116 25
-255 25 -132 1 -177 5 -265 25 -116 26 -141 31 -215 41 -54 7 -183 13 -187 8z"/>
</g>
</svg>
